#!OML:ASF F:\VICON\USERDATA\INSTALL\rory3\rory3.ASF
:FULLY-SPECIFIED
:DEGREES
1
root -0.6810459999999994 18.5364 -16.553500000000007 1.0212399999999926 6.49743999999999 -4.580689999999996
lfemur -25.651500000000024 -3.083970000000003 -20.1672
ltibia 22.97049999999995
lfoot 3.2649900000000063 -12.262399999999989
ltoes -16.904300000000006
rfemur 3.254179999999973 3.5645500000000006 32.185100000000006
rtibia 72.85800000000002
rfoot 26.143199999999982 -13.328700000000008
rtoes 19.255099999999988
lowerback nan 1.6995899999999988 3.695659999999998
upperback -1.05116 3.019509999999997 1.5196299999999996
thorax -8.816839999999997 1.320260000000001 -1.0963000000000047
lowerneck -18.372300000000003 -5.461539999999997 -1.4497600000000002
upperneck 15.212399999999999 -7.607260000000003 2.83736
head 7.88349 -3.4144099999999984 0.25554799999999966
lclavicle -1.2610400000000008e-14 1.4908900000000006e-15
lhumerus -68.94400000000002 -6.8320299999999925 98.4683
lradius 103.423
lwrist 32.9946
lhand -23.9124 0.9113389999999995
lfingers nan
lthumb 2.5619999999999985 30.875700000000002
rclavicle -1.2610400000000008e-14 1.4908900000000006e-15
rhumerus -45.96820000000001 17.66069999999998 -100.593
rradius 112.028
rwrist -6.983719999999996
rhand -19.2384 nan
rfingers nan
rthumb 7.0750100000000025 10.2014
2
root -0.6899750000000009 18.4166 -16.0711 0.4544800000000051 7.037239999999989 -4.424809999999997
lfemur -25.22969999999998 -3.041510000000004 -20.5365
ltibia 25.001199999999947
lfoot 3.361250000000004 -13.078500000000009
ltoes -12.905500000000002
rfemur 1.753250000000019 2.251289999999999 31.5429
rtibia 77.00919999999999
rfoot 26.258900000000025 -14.375199999999978
rtoes 23.296299999999967
lowerback nan 1.5046900000000012 3.481509999999995
upperback -0.996089 2.7414499999999977 1.4065700000000003
thorax -9.117810000000002 1.1866699999999997 -1.0589899999999977
lowerneck -17.758099999999995 -5.461570000000002 -1.4568100000000004
upperneck 14.8913 -7.661409999999998 3.1716
head 7.68805 -3.42212 0.3799499999999997
lclavicle -4.217960000000005e-15 1.2921000000000008e-15
lhumerus -68.33870000000002 -7.87818 98.7756
lradius 103.549
lwrist 32.4637
lhand -24.141 0.5615019999999988
lfingers nan
lthumb 2.3411900000000014 30.528399999999998
rclavicle -4.217960000000005e-15 1.2921000000000008e-15
rhumerus -46.69409999999999 16.997999999999998 -101.12099999999998
rradius 110.994
rwrist -7.945910000000001
rhand -12.843000000000009 nan
rfingers nan
rthumb 13.244500000000002 23.049200000000017
3
root -0.6883829999999993 18.2769 -15.591100000000035 -0.19407000000000751 7.9985499999999865 -4.305809999999998
lfemur -25.112800000000014 -3.5183699999999956 -20.862
ltibia 27.654400000000013
lfoot 2.105950000000004 -14.606100000000001
ltoes -4.865249999999996
rfemur 0.2619129999999892 0.40142500000000036 30.751999999999995
rtibia 81.01600000000005
rfoot 25.123899999999985 -14.650199999999984
rtoes 20.362800000000025
lowerback nan 1.0845700000000003 3.4983599999999977
upperback -0.8771070000000003 2.2103500000000014 1.3088200000000008
thorax -9.45318 0.9214259999999997 -1.0779400000000032
lowerneck -17.734600000000004 -5.4704299999999995 -1.6086000000000005
upperneck 14.9334 -7.709449999999999 3.5513500000000007
head 7.72235 -3.415460000000002 0.5218629999999999
lclavicle -1.78937e-14 4.96962000000001e-15
lhumerus -67.32859999999997 -8.868309999999997 99.082
lradius 103.577
lwrist 32.1452
lhand -24.591 0.13793300000000364
lfingers nan
lthumb 1.9066099999999992 30.1092
rclavicle -1.78937e-14 4.96962000000001e-15
rhumerus -47.3948 16.238200000000006 -101.47000000000001
rradius 110.051
rwrist -8.343899999999994
rhand -18.1728 nan
rfingers nan
rthumb 8.10357 10.2374
4
root -0.6738859999999998 18.1512 -15.096099999999955 -0.6319100000000089 8.632619999999994 -4.248620000000003
lfemur -24.916200000000014 -4.206559999999992 -20.9697
ltibia 30.854899999999976
lfoot -2.6013199999999963 -15.721300000000014
ltoes -2.7595099999999873
rfemur -1.4423399999999553 -1.1338799999999962 29.862
rtibia 84.8786
rfoot 21.820400000000024 -14.81750000000001
rtoes 10.217699999999988
lowerback nan 0.7428740000000003 3.579219999999995
upperback -0.7077190000000008 1.78115 1.2658800000000003
thorax -9.51428 0.710874 -1.0791999999999966
lowerneck -18.203100000000003 -5.436840000000003 -1.74899
upperneck 15.382299999999997 -7.684149999999997 3.7525099999999987
head 7.966379999999999 -3.374620000000001 0.5953729999999999
lclavicle -1.4414999999999985e-14 3.1060100000000013e-15
lhumerus -65.96190000000001 -9.669239999999997 99.4082
lradius 103.56000000000002
lwrist 32.0728
lhand -24.9056 -0.30872000000000166
lfingers nan
lthumb 1.60277 29.665000000000003
rclavicle -1.4414999999999985e-14 3.1060100000000013e-15
rhumerus -47.87969999999999 15.638700000000014 -101.582
rradius 108.977
rwrist -8.091709999999999
rhand -18.3413 nan
rfingers nan
rthumb 7.940969999999998 9.96328
